<svg width="60" height="60" viewBox="0 0 60 60" fill="none" xmlns="http://www.w3.org/2000/svg">
<path d="M30.0002 39.075C26.7002 39.075 24.0002 36.375 24.0002 33.075V26.9C24.0002 23.6 26.7002 20.9 30.0002 20.9C33.3002 20.9 36.0003 23.6 36.0003 26.9V33.075C36.0003 36.4 33.3002 39.075 30.0002 39.075ZM30.0002 24.675C28.7752 24.675 27.7502 25.675 27.7502 26.925V33.1C27.7502 34.35 28.7502 35.35 30.0002 35.35C31.2502 35.35 32.2503 34.35 32.2503 33.1V26.925C32.2503 25.675 31.2252 24.675 30.0002 24.675Z" fill="#1185C8"/>
<path d="M30 47.05C22.075 47.05 15.625 40.6 15.625 32.675V27.325C15.625 19.4 22.075 12.95 30 12.95C37.4 12.95 43.55 18.5001 44.3 25.8501C44.4 26.8751 43.65 27.7999 42.625 27.8999C41.6 28.0249 40.675 27.25 40.575 26.225C40.025 20.8 35.475 16.7 30 16.7C24.15 16.7 19.375 21.475 19.375 27.325V32.675C19.375 38.525 24.15 43.3 30 43.3C35.5 43.3 40.15 38.9999 40.6 33.5249C40.675 32.4999 41.575 31.7249 42.625 31.7999C43.65 31.8749 44.425 32.7751 44.35 33.8251C43.75 41.2501 37.45 47.05 30 47.05Z" fill="#1185C8"/>
<path d="M55 24.375C53.975 24.375 53.125 23.525 53.125 22.5V17.5C53.125 11.05 48.95 6.875 42.5 6.875H37.5C36.475 6.875 35.625 6.025 35.625 5C35.625 3.975 36.475 3.125 37.5 3.125H42.5C51.1 3.125 56.875 8.9 56.875 17.5V22.5C56.875 23.525 56.025 24.375 55 24.375Z" fill="#1185C8"/>
<path d="M5 24.375C3.975 24.375 3.125 23.525 3.125 22.5V17.5C3.125 8.9 8.9 3.125 17.5 3.125H22.5C23.525 3.125 24.375 3.975 24.375 5C24.375 6.025 23.525 6.875 22.5 6.875H17.5C11.05 6.875 6.875 11.05 6.875 17.5V22.5C6.875 23.525 6.025 24.375 5 24.375Z" fill="#1185C8"/>
<path d="M42.5 56.875H37.5C36.475 56.875 35.625 56.025 35.625 55C35.625 53.975 36.475 53.125 37.5 53.125H42.5C48.95 53.125 53.125 48.95 53.125 42.5V37.5C53.125 36.475 53.975 35.625 55 35.625C56.025 35.625 56.875 36.475 56.875 37.5V42.5C56.875 51.1 51.1 56.875 42.5 56.875Z" fill="#1185C8"/>
<path d="M22.5 56.875H17.5C8.9 56.875 3.125 51.1 3.125 42.5V37.5C3.125 36.475 3.975 35.625 5 35.625C6.025 35.625 6.875 36.475 6.875 37.5V42.5C6.875 48.95 11.05 53.125 17.5 53.125H22.5C23.525 53.125 24.375 53.975 24.375 55C24.375 56.025 23.525 56.875 22.5 56.875Z" fill="#1185C8"/>
</svg>
