<svg width="46" height="46" viewBox="0 0 46 46" fill="none" xmlns="http://www.w3.org/2000/svg">
<path d="M33.2544 17.3458L28.7694 31.7975C27.696 35.2283 22.8852 35.2858 21.7544 31.8742L20.4127 27.9067C20.0485 26.8142 19.186 25.9325 18.0935 25.5875L14.1069 24.2458C10.7144 23.115 10.7719 18.2658 14.2027 17.2308L28.6544 12.7267C31.491 11.8642 34.1552 14.5283 33.2544 17.3458Z" stroke="#1185C8" stroke-width="1.5" stroke-linecap="round" stroke-linejoin="round"/>
<path d="M17.2502 42.1667H28.7502C38.3335 42.1667 42.1668 38.3333 42.1668 28.75V17.25C42.1668 7.66668 38.3335 3.83334 28.7502 3.83334H17.2502C7.66683 3.83334 3.8335 7.66668 3.8335 17.25V28.75C3.8335 38.3333 7.66683 42.1667 17.2502 42.1667Z" stroke="#1185C8" stroke-width="1.5" stroke-linecap="round" stroke-linejoin="round"/>
</svg>
