<svg width="20" height="20" viewBox="0 0 20 20" fill="none" xmlns="http://www.w3.org/2000/svg">
<path d="M7.1349 18.7733V15.7156C7.1349 14.9351 7.77229 14.3023 8.55856 14.3023H11.4327C11.8103 14.3023 12.1724 14.4512 12.4394 14.7163C12.7064 14.9813 12.8564 15.3408 12.8564 15.7156V18.7733C12.854 19.0978 12.9822 19.4099 13.2125 19.6402C13.4428 19.8705 13.7562 20 14.0831 20H16.0439C16.9598 20.0023 17.8389 19.6428 18.4873 19.0008C19.1357 18.3588 19.5001 17.487 19.5001 16.5778V7.86686C19.5001 7.13246 19.1722 6.43584 18.6047 5.96467L11.9341 0.675869C10.7738 -0.251438 9.11123 -0.221498 7.98551 0.746979L1.46713 5.96467C0.872863 6.42195 0.517674 7.12064 0.500122 7.86686V16.5689C0.500122 18.4639 2.0475 20 3.9563 20H5.87241C6.55135 20 7.10312 19.4562 7.10804 18.7822L7.1349 18.7733Z" fill="#1185C8"/>
</svg>
