<svg width="60" height="60" viewBox="0 0 60 60" fill="none" xmlns="http://www.w3.org/2000/svg">
<path d="M15.45 56.875C15.2 56.875 14.925 56.85 14.7 56.825L9.27501 56.075C6.67501 55.725 4.32501 53.4 3.92501 50.75L3.17501 45.275C2.92501 43.525 3.67501 41.25 4.92501 39.975L15.9 29C14.125 21.9 16.175 14.4 21.4 9.225C29.5 1.15 42.675 1.125 50.8 9.225C54.725 13.15 56.875 18.375 56.875 23.925C56.875 29.475 54.725 34.7 50.8 38.625C45.55 43.825 38.075 45.875 31.025 44.075L20.025 55.05C18.975 56.15 17.1 56.875 15.45 56.875ZM36.075 6.9C31.7 6.9 27.35 8.55 24.025 11.875C19.525 16.35 17.9 22.9 19.775 29C19.975 29.675 19.8 30.375 19.3 30.875L7.55001 42.625C7.12501 43.05 6.77501 44.15 6.85001 44.725L7.60001 50.2C7.75001 51.15 8.77501 52.225 9.72501 52.35L15.175 53.1C15.775 53.2 16.875 52.85 17.3 52.425L29.1 40.65C29.6 40.15 30.325 40 30.975 40.2C37 42.1 43.575 40.475 48.075 35.975C51.275 32.775 53.05 28.475 53.05 23.925C53.05 19.35 51.275 15.075 48.075 11.875C44.825 8.575 40.45 6.9 36.075 6.9Z" fill="#1185C8"/>
<path d="M22.975 51.35C22.5 51.35 22.025 51.175 21.65 50.8L15.9 45.05C15.175 44.325 15.175 43.125 15.9 42.4C16.625 41.675 17.825 41.675 18.55 42.4L24.3 48.15C25.025 48.875 25.025 50.075 24.3 50.8C23.925 51.175 23.45 51.35 22.975 51.35Z" fill="#1185C8"/>
<path d="M36.25 29.375C33.15 29.375 30.625 26.85 30.625 23.75C30.625 20.65 33.15 18.125 36.25 18.125C39.35 18.125 41.875 20.65 41.875 23.75C41.875 26.85 39.35 29.375 36.25 29.375ZM36.25 21.875C35.225 21.875 34.375 22.725 34.375 23.75C34.375 24.775 35.225 25.625 36.25 25.625C37.275 25.625 38.125 24.775 38.125 23.75C38.125 22.725 37.275 21.875 36.25 21.875Z" fill="#1185C8"/>
</svg>
