<svg width="46" height="46" viewBox="0 0 46 46" fill="none" xmlns="http://www.w3.org/2000/svg">
<path d="M17.2502 42.1667H28.7502C38.3335 42.1667 42.1668 38.3333 42.1668 28.75V17.25C42.1668 7.66668 38.3335 3.83334 28.7502 3.83334H17.2502C7.66683 3.83334 3.8335 7.66668 3.8335 17.25V28.75C3.8335 38.3333 7.66683 42.1667 17.2502 42.1667Z" stroke="#1185C8" stroke-width="1.5" stroke-linecap="round" stroke-linejoin="round"/>
<path d="M31.75 24.25C31.75 29.08 27.83 33 23 33C18.17 33 14.25 29.08 14.25 24.25C14.25 19.42 18.17 15.5 23 15.5C27.83 15.5 31.75 19.42 31.75 24.25Z" stroke="#1185C8" stroke-width="1.5" stroke-linecap="round" stroke-linejoin="round"/>
<path d="M23 19V24" stroke="#1185C8" stroke-width="1.5" stroke-linecap="round" stroke-linejoin="round"/>
<path d="M20 13H26" stroke="#1185C8" stroke-width="1.5" stroke-miterlimit="10" stroke-linecap="round" stroke-linejoin="round"/>
</svg>
