<svg width="46" height="46" viewBox="0 0 46 46" fill="none" xmlns="http://www.w3.org/2000/svg">
<path d="M17.2502 42.1667H28.7502C38.3335 42.1667 42.1668 38.3333 42.1668 28.75V17.25C42.1668 7.66668 38.3335 3.83334 28.7502 3.83334H17.2502C7.66683 3.83334 3.8335 7.66668 3.8335 17.25V28.75C3.8335 38.3333 7.66683 42.1667 17.2502 42.1667Z" stroke="#1185C8" stroke-width="1.5" stroke-linecap="round" stroke-linejoin="round"/>
<path d="M22.5 25.75C23.7426 25.75 24.75 24.7426 24.75 23.5C24.75 22.2574 23.7426 21.25 22.5 21.25C21.2574 21.25 20.25 22.2574 20.25 23.5C20.25 24.7426 21.2574 25.75 22.5 25.75Z" stroke="#1185C8" stroke-width="1.5" stroke-linecap="round" stroke-linejoin="round"/>
<path d="M31.5 30.25C32.9175 28.3713 33.75 26.0312 33.75 23.5C33.75 20.9688 32.9175 18.6287 31.5 16.75" stroke="#1185C8" stroke-width="1.5" stroke-linecap="round" stroke-linejoin="round"/>
<path d="M13.5 16.75C12.0825 18.6287 11.25 20.9688 11.25 23.5C11.25 26.0312 12.0825 28.3713 13.5 30.25" stroke="#1185C8" stroke-width="1.5" stroke-linecap="round" stroke-linejoin="round"/>
<path d="M27.8999 27.55C28.7437 26.425 29.2499 25.0187 29.2499 23.5C29.2499 21.9812 28.7437 20.575 27.8999 19.45" stroke="#1185C8" stroke-width="1.5" stroke-linecap="round" stroke-linejoin="round"/>
<path d="M17.1 19.45C16.2563 20.575 15.75 21.9812 15.75 23.5C15.75 25.0187 16.2563 26.425 17.1 27.55" stroke="#1185C8" stroke-width="1.5" stroke-linecap="round" stroke-linejoin="round"/>
</svg>
