<svg width="123" height="123" viewBox="0 0 123 123" fill="none" xmlns="http://www.w3.org/2000/svg">
<path d="M61.5 71.75C67.1609 71.75 71.75 67.1609 71.75 61.5C71.75 55.8391 67.1609 51.25 61.5 51.25C55.8391 51.25 51.25 55.8391 51.25 61.5C51.25 67.1609 55.8391 71.75 61.5 71.75Z" stroke="#FF4141" stroke-width="2" stroke-linecap="round" stroke-linejoin="round"/>
<path d="M102.5 92.25C108.957 83.6913 112.75 73.0312 112.75 61.5C112.75 49.9688 108.957 39.3087 102.5 30.75" stroke="#FF4141" stroke-width="2" stroke-linecap="round" stroke-linejoin="round"/>
<path d="M20.5 30.75C14.0425 39.3087 10.25 49.9688 10.25 61.5C10.25 73.0312 14.0425 83.6913 20.5 92.25" stroke="#FF4141" stroke-width="2" stroke-linecap="round" stroke-linejoin="round"/>
<path d="M86.1001 79.95C89.9438 74.825 92.2502 68.4188 92.2502 61.5C92.2502 54.5813 89.9438 48.175 86.1001 43.05" stroke="#FF4141" stroke-width="2" stroke-linecap="round" stroke-linejoin="round"/>
<path d="M36.9001 43.05C33.0563 48.175 30.75 54.5813 30.75 61.5C30.75 68.4188 33.0563 74.825 36.9001 79.95" stroke="#FF4141" stroke-width="2" stroke-linecap="round" stroke-linejoin="round"/>
</svg>
