<svg width="46" height="46" viewBox="0 0 46 46" fill="none" xmlns="http://www.w3.org/2000/svg">
<path d="M3.8335 17.25V12.4583C3.8335 7.68584 7.686 3.83334 12.4585 3.83334H17.2502" stroke="#1185C8" stroke-width="1.5" stroke-linecap="round" stroke-linejoin="round"/>
<path d="M28.75 3.83334H33.5417C38.3142 3.83334 42.1667 7.68584 42.1667 12.4583V17.25" stroke="#1185C8" stroke-width="1.5" stroke-linecap="round" stroke-linejoin="round"/>
<path d="M42.1665 30.6667V33.5417C42.1665 38.3142 38.314 42.1667 33.5415 42.1667H30.6665" stroke="#1185C8" stroke-width="1.5" stroke-linecap="round" stroke-linejoin="round"/>
<path d="M17.2502 42.1667H12.4585C7.686 42.1667 3.8335 38.3142 3.8335 33.5417V28.75" stroke="#1185C8" stroke-width="1.5" stroke-linecap="round" stroke-linejoin="round"/>
<path d="M32.5832 18.2083V27.7917C32.5832 31.625 30.6665 33.5417 26.8332 33.5417H19.1665C15.3332 33.5417 13.4165 31.625 13.4165 27.7917V18.2083C13.4165 14.375 15.3332 12.4583 19.1665 12.4583H26.8332C30.6665 12.4583 32.5832 14.375 32.5832 18.2083Z" stroke="#1185C8" stroke-width="1.5" stroke-linecap="round" stroke-linejoin="round"/>
<path d="M36.4168 23H9.5835" stroke="#1185C8" stroke-width="1.5" stroke-linecap="round" stroke-linejoin="round"/>
</svg>
