<svg width="20" height="22" viewBox="0 0 20 22" fill="none" xmlns="http://www.w3.org/2000/svg">
<path fill-rule="evenodd" clip-rule="evenodd" d="M15 5C15 7.76142 12.7614 11.25 10 11.25C7.23858 11.25 5 7.76142 5 5C5 2.23858 7.23858 0 10 0C12.7614 0 15 2.23858 15 5ZM13.5 5C13.5 6.01681 13.0706 7.27163 12.3317 8.26571C11.5816 9.27479 10.7261 9.75 10 9.75C9.27389 9.75 8.41837 9.27479 7.66833 8.26571C6.92944 7.27163 6.5 6.01681 6.5 5C6.5 3.067 8.067 1.5 10 1.5C11.933 1.5 13.5 3.067 13.5 5Z" fill="#6A6A6A"/>
<path fill-rule="evenodd" clip-rule="evenodd" d="M0 21.1818C0 16.6631 3.66312 13 8.18182 13H11.9474C16.3947 13 20 16.6053 20 21.0526C20 21.5758 19.5758 22 19.0526 22H0.818182C0.366313 22 0 21.6337 0 21.1818ZM8.18182 14.5H11.9474C15.3802 14.5 18.1964 17.1397 18.477 20.5H1.53436C1.87591 17.13 4.72173 14.5 8.18182 14.5Z" fill="#6A6A6A"/>
</svg>
